<?xml version="1.0" encoding="UTF-8" standalone="no"?>
<svg
   xmlns:dc="http://purl.org/dc/elements/1.1/"
   xmlns:cc="http://creativecommons.org/ns#"
   xmlns:rdf="http://www.w3.org/1999/02/22-rdf-syntax-ns#"
   xmlns:svg="http://www.w3.org/2000/svg"
   xmlns="http://www.w3.org/2000/svg"
   xmlns:sodipodi="http://sodipodi.sourceforge.net/DTD/sodipodi-0.dtd"
   xmlns:inkscape="http://www.inkscape.org/namespaces/inkscape"
   width="140mm"
   height="140mm"
   viewBox="0 0 140 140"
   version="1.1"
   id="svg12220"
   inkscape:version="1.0.2 (e86c8708, 2021-01-15)"
   sodipodi:docname="logo.svg"
   inkscape:export-filename="/Users/abasile/personal-site/public/img/logo2.png"
   inkscape:export-xdpi="295.19"
   inkscape:export-ydpi="295.19">
  <defs
     id="defs12214">
    <clipPath
       clipPathUnits="userSpaceOnUse"
       id="clipPath14068">
      <rect
         style="fill:#e63946;fill-opacity:1;stroke-width:9.6945;stroke-linecap:round;paint-order:markers stroke fill;stop-color:#000000"
         id="rect14070"
         width="141.58012"
         height="137.21036"
         x="-397.89185"
         y="-84.16256"
         transform="scale(1,-1)" />
    </clipPath>
  </defs>
  <sodipodi:namedview
     id="base"
     pagecolor="#ffffff"
     bordercolor="#666666"
     borderopacity="1.0"
     inkscape:pageopacity="0.0"
     inkscape:pageshadow="2"
     inkscape:zoom="0.5888005"
     inkscape:cx="316.05619"
     inkscape:cy="439.55615"
     inkscape:document-units="mm"
     inkscape:current-layer="layer1"
     inkscape:document-rotation="0"
     showgrid="false"
     inkscape:window-width="1440"
     inkscape:window-height="847"
     inkscape:window-x="0"
     inkscape:window-y="25"
     inkscape:window-maximized="1" />
  <metadata
     id="metadata12217">
    <rdf:RDF>
      <cc:Work
         rdf:about="">
        <dc:format>image/svg+xml</dc:format>
        <dc:type
           rdf:resource="http://purl.org/dc/dcmitype/StillImage" />
        <dc:title></dc:title>
      </cc:Work>
    </rdf:RDF>
  </metadata>
  <g
     inkscape:label="Layer 1"
     inkscape:groupmode="layer"
     id="layer1">
    <g
       id="g4956"
       transform="matrix(1.2278986,0,0,-1.2278986,462.01683,93.760576)"
       style="fill:#e63946;fill-opacity:1;stroke-width:1.32411"
       clip-path="url(#clipPath14068)">
      <path
         id="path4958"
         style="fill:#e63946;fill-opacity:1;fill-rule:nonzero;stroke:none;stroke-width:1.32411"
         d="M -1.6214605e-6,-4.16233e-6 C -1.6214605e-6,-20.033004 11.699998,-29.903004 22.666998,-37.582004 l 9.686,14.418 c -9.054,6.34 -15.464,11.171 -15.464,23.16399983767 V 113.567 H -1.6214605e-6 Z M -78.656232,12.141515 h 61.915 v 16.889 c -4.573,26.571 -28.298,46.834 -55.766,46.834 -30.748998,0 -55.764998,-25.39 -55.764998,-56.6 0,-31.209 25.016,-56.601 55.764998,-56.601 14.774,0 28.697,5.806 39.202,16.347 1.897,1.902 3.676,3.963 5.289,6.124 l -13.538,10.0970002 c -1.133,-1.518 -2.382,-2.965 -3.712,-4.3 -7.314,-7.3370002 -16.988,-11.3790002 -27.241,-11.3790002 -21.437,0 -38.877998,17.8140002 -38.877998,39.712 0,21.897 17.440998,39.712 38.877998,39.712 18.139,0 34.246,-12.756 38.517,-29.946 h -44.666 z M -190.70854,75.86551 c -15.105,0 -28.824,-6.13 -38.877,-16.064 v 14.327 h -16.888 v -61.987 h 16.888 v 16.061 c 4.202,17.606 20.449,30.774 38.877,30.774 15.802,0 28.659,-12.856 28.659,-28.658 v -3.931 -61.987 h 16.888 v 61.987 3.931 c 0,25.115 -20.432,45.547 -45.547,45.547 M -325.34981,12.141515 h 61.987 v 16.889 c -4.572,26.571 -28.296,46.834 -55.765,46.834 -30.75,0 -55.766,-25.39 -55.766,-56.6 0,-31.209 25.016,-56.601 55.766,-56.601 14.775,0 28.697,5.806 39.203,16.347 1.896,1.902 3.675,3.963 5.287,6.124 l -13.538,10.0970002 c -1.132,-1.518 -2.381,-2.965 -3.712,-4.3 -7.312,-7.3370002 -16.988,-11.3790002 -27.24,-11.3790002 -21.437,0 -38.878,17.8140002 -38.878,39.712 0,21.897 17.441,39.712 38.878,39.712 18.138,0 34.245,-12.756 38.518,-29.946 h -44.74 z"
         inkscape:connector-curvature="0" />
    </g>
  </g>
</svg>
