<?xml version="1.0" encoding="UTF-8" standalone="no"?>
<svg
   xmlns:dc="http://purl.org/dc/elements/1.1/"
   xmlns:cc="http://creativecommons.org/ns#"
   xmlns:rdf="http://www.w3.org/1999/02/22-rdf-syntax-ns#"
   xmlns:svg="http://www.w3.org/2000/svg"
   xmlns="http://www.w3.org/2000/svg"
   xmlns:sodipodi="http://sodipodi.sourceforge.net/DTD/sodipodi-0.dtd"
   xmlns:inkscape="http://www.inkscape.org/namespaces/inkscape"
   aria-hidden="true"
   focusable="false"
   data-prefix="fab"
   data-icon="golang"
   class="svg-inline--fa fa-golang"
   role="img"
   viewBox="0 0 142 142"
   version="1.1"
   id="svg15800"
   sodipodi:docname="thing.svg"
   inkscape:version="1.0.2 (e86c8708, 2021-01-15)"
   width="142"
   height="142">
  <metadata
     id="metadata15806">
    <rdf:RDF>
      <cc:Work
         rdf:about="">
        <dc:format>image/svg+xml</dc:format>
        <dc:type
           rdf:resource="http://purl.org/dc/dcmitype/StillImage" />
        <dc:title></dc:title>
      </cc:Work>
    </rdf:RDF>
  </metadata>
  <defs
     id="defs15804">
    <clipPath
       clipPathUnits="userSpaceOnUse"
       id="clipPath16443">
      <rect
         style="fill:#000000;stroke-width:9.69445;stroke-linecap:round;paint-order:markers stroke fill;stop-color:#000000"
         id="rect16445"
         width="90.2146"
         height="41.135075"
         x="153.44264"
         y="343.82645"
         rx="9.8865299"
         ry="9.8865299" />
    </clipPath>
  </defs>
  <sodipodi:namedview
     pagecolor="#ffffff"
     bordercolor="#666666"
     borderopacity="1"
     objecttolerance="10"
     gridtolerance="10"
     guidetolerance="10"
     inkscape:pageopacity="0"
     inkscape:pageshadow="2"
     inkscape:window-width="1440"
     inkscape:window-height="847"
     id="namedview15802"
     showgrid="false"
     inkscape:snap-bbox="true"
     inkscape:bbox-paths="true"
     inkscape:bbox-nodes="true"
     inkscape:snap-bbox-edge-midpoints="true"
     inkscape:snap-bbox-midpoints="true"
     inkscape:zoom="0.49669182"
     inkscape:cx="17.309226"
     inkscape:cy="128.89038"
     inkscape:window-x="0"
     inkscape:window-y="25"
     inkscape:window-maximized="1"
     inkscape:current-layer="svg15800"
     inkscape:snap-global="true" />
  <path
     id="path18920"
     style="fill:#003467;fill-opacity:1;stroke-width:9.69449;stroke-linecap:round;paint-order:markers stroke fill;stop-color:#000000"
     d="M 71.000006,0 A 71.000293,71.000293 0 0 0 0,71.000004 71.000293,71.000293 0 0 0 71.000006,142.00001 71.000293,71.000293 0 0 0 142,71.000004 71.000293,71.000293 0 0 0 71.000006,0 Z m -0.05457,10.825061 a 60.175959,60.175959 0 0 1 0.05457,0 A 60.175959,60.175959 0 0 1 131.17494,71.000004 60.175959,60.175959 0 0 1 71.000006,131.1769 60.175959,60.175959 0 0 1 10.823112,71.000004 60.175959,60.175959 0 0 1 70.945449,10.825061 Z" />
  <path
     id="rect18927"
     style="fill:#003467;fill-opacity:1;stroke-width:9.6945;stroke-linecap:round;paint-order:markers stroke fill;stop-color:#000000"
     d="M 37.059659,39.922902 V 56.433261 H 62.010285 V 116.61016 H 79.623408 V 56.433261 H 104.94034 V 39.922902 c -24.429642,0.006 -43.572652,0 -67.880681,0 z"
     sodipodi:nodetypes="ccccccccc" />
</svg>
